<?xml version="1.0" encoding="utf-8"?>
<!-- Generator: Adobe Illustrator 16.0.4, SVG Export Plug-In . SVG Version: 6.00 Build 0)  -->
<!DOCTYPE svg PUBLIC "-//W3C//DTD SVG 1.1//EN" "http://www.w3.org/Graphics/SVG/1.1/DTD/svg11.dtd" [
	<!ENTITY st0 "fill:#15467A;">
	<!ENTITY st1 "fill:#0D79BF;">
]>
<svg version="1.1" id="Layer_1" xmlns="http://www.w3.org/2000/svg" xmlns:xlink="http://www.w3.org/1999/xlink" x="0px" y="0px"
	 width="109px" height="29px" viewBox="54.5 14.5 109 29" style="enable-background:new 54.5 14.5 109 29;" xml:space="preserve">
<path style="&st1;" d="M142.643,21.315c-1.134-0.632-2.903-0.952-5.327-0.952c-1.198,0-2.403,0.096-3.611,0.283
	c-0.887,0.136-0.977,0.159-1.528,0.278c-1.135,0.247-1.309,1.382-1.309,1.382l-0.364,1.498c-0.206,0.958,0.339,0.918,0.581,0.844
	c0.495-0.149,0.763-0.297,1.772-0.527c0.966-0.219,1.986-0.383,2.8-0.376c1.191,0,2.1,0.131,2.705,0.382
	c0.602,0.264,0.901,0.711,0.901,1.354c0.003,0.152,0.006,0.296-0.049,0.421c-0.051,0.118-0.145,0.232-0.431,0.27
	c-1.702,0.101-2.927,0.257-4.396,0.472c-1.453,0.204-2.725,0.554-3.786,1.041c-1.133,0.501-1.979,1.174-2.564,2.026
	c-0.567,0.856-0.854,1.892-0.856,3.113c0,1.153,0.415,2.095,1.218,2.824c0.812,0.722,1.868,1.078,3.145,1.078
	c0.799-0.006,1.423-0.062,1.87-0.175c0.444-0.112,0.927-0.271,1.438-0.491c0.382-0.16,0.793-0.39,1.227-0.68
	c0.437-0.289,0.738-0.496,1.124-0.749l0.014,0.023l-0.108,0.48c-0.003,0.005-0.009,0.008-0.009,0.011l0.003,0.01
	c-0.123,0.577,0.224,1.06,0.798,1.115l0.006,0.013h0.052l0.002,0.002c0.381,0,1.685-0.001,2.294-0.002h0.427
	c0.028,0,0.031-0.01,0.043-0.016c0.582-0.072,1.144-0.548,1.275-1.12l2.178-9.397c0.052-0.222,0.09-0.477,0.113-0.771
	c0.029-0.297,0.06-0.542,0.051-0.717C144.341,22.93,143.771,21.946,142.643,21.315z M137.365,32.514
	c-0.369,0.232-0.763,0.433-1.17,0.602c-0.552,0.223-1.074,0.339-1.557,0.339c-0.741,0-1.312-0.104-1.696-0.328
	c-0.386-0.213-0.588-0.582-0.579-1.112c0-0.61,0.139-1.083,0.431-1.455c0.295-0.357,0.73-0.645,1.272-0.86
	c0.538-0.183,1.201-0.333,1.965-0.441c0.679-0.084,2.023-0.239,2.196-0.241c0.172-0.001,0.287-0.097,0.21,0.361
	c-0.035,0.198-0.421,1.794-0.6,2.518C137.787,32.113,137.498,32.428,137.365,32.514z"/>
<path style="&st0;" d="M105.181,20.572c-0.639,0-1.477,0.516-1.874,1.142c0,0-4.272,7.324-4.691,8.056
	c-0.228,0.394-0.459,0.144-0.498-0.003c-0.031-0.178-1.324-8.006-1.324-8.006c-0.146-0.631-0.804-1.171-1.627-1.169l-2.663,0.005
	c-0.643,0-1.043,0.515-0.901,1.136c0,0,2.037,11.543,2.435,14.258c0.198,1.502-0.021,1.768-0.021,1.768l-2.641,4.604
	C90.988,42.987,91.2,43.5,91.839,43.5l3.088-0.004c0.639,0,1.486-0.508,1.867-1.135l11.877-20.088c0,0,1.137-1.716,0.089-1.702
	C108.045,20.582,105.181,20.572,105.181,20.572"/>
<path style="&st0;" d="M67.685,24.655c-0.899,0.658-2.144,0.986-3.762,0.986h-0.731c-0.645,0-1.051-0.51-0.908-1.137l0.897-3.869
	c0.136-0.623,0.779-1.139,1.424-1.133l0.975-0.006c1.14,0,2.005,0.195,2.591,0.583c0.575,0.377,0.869,0.974,0.858,1.776
	C69.046,23.062,68.588,23.996,67.685,24.655 M74.123,18.694c-0.37-0.723-0.926-1.31-1.635-1.753
	c-0.735-0.455-1.59-0.767-2.588-0.956c-1.003-0.179-2.175-0.268-3.52-0.28l-6.224,0.005c-0.647,0.007-1.28,0.515-1.431,1.137
	l-4.196,18.245c-0.145,0.625,0.26,1.141,0.904,1.141h2.98c0.646,0,1.285-0.503,1.429-1.141l1.029-4.428
	c0.137-0.619,0.773-1.132,1.419-1.132h0.853c3.646-0.003,6.476-0.75,8.509-2.242c2.029-1.49,3.043-3.465,3.039-5.908
	C74.696,20.309,74.511,19.411,74.123,18.694"/>
<path style="&st1;" d="M121.821,24.73c-0.893,0.649-2.146,0.975-3.761,0.975h-0.741c-0.642,0.008-1.056-0.511-0.904-1.134
	l0.895-3.874c0.133-0.613,0.783-1.135,1.417-1.128l0.979-0.005c1.144,0.005,2,0.196,2.591,0.578
	c0.582,0.384,0.863,0.981,0.867,1.777C123.168,23.131,122.719,24.065,121.821,24.73 M128.257,18.76
	c-0.371-0.723-0.932-1.305-1.642-1.758c-0.727-0.452-1.592-0.768-2.594-0.951c-0.988-0.174-2.164-0.273-3.506-0.276l-6.239,0.003
	c-0.641,0.011-1.271,0.515-1.419,1.136l-4.194,18.251c-0.154,0.619,0.263,1.139,0.895,1.133l2.993-0.004
	c0.635,0.004,1.282-0.51,1.431-1.129l1.013-4.429c0.142-0.621,0.786-1.141,1.433-1.132h0.849c3.652,0,6.483-0.75,8.51-2.244
	c2.022-1.501,3.039-3.468,3.039-5.917C128.819,20.375,128.637,19.475,128.257,18.76"/>
<path style="&st0;" d="M88.494,21.3c-1.132-0.631-2.902-0.95-5.325-0.95c-1.199,0-2.403,0.095-3.612,0.282
	c-0.888,0.135-0.977,0.158-1.528,0.277c-1.135,0.249-1.309,1.383-1.309,1.383l-0.365,1.498c-0.206,0.958,0.341,0.918,0.583,0.844
	c0.494-0.149,0.764-0.297,1.774-0.527c0.963-0.219,1.984-0.382,2.798-0.376c1.195,0,2.1,0.131,2.704,0.383
	c0.604,0.263,0.902,0.711,0.902,1.353c0.004,0.153,0.007,0.298-0.047,0.423c-0.05,0.117-0.146,0.23-0.431,0.269
	c-1.703,0.103-2.924,0.257-4.398,0.471c-1.452,0.205-2.723,0.555-3.786,1.04c-1.132,0.502-1.979,1.176-2.562,2.027
	c-0.571,0.854-0.856,1.891-0.857,3.112c0,1.153,0.415,2.096,1.216,2.825c0.813,0.721,1.868,1.078,3.146,1.078
	c0.798-0.005,1.422-0.063,1.872-0.176c0.443-0.113,0.927-0.271,1.435-0.491c0.383-0.157,0.793-0.391,1.229-0.68
	c0.434-0.289,0.737-0.496,1.125-0.747l0.012,0.022l-0.109,0.479c0,0.005-0.007,0.009-0.007,0.014l0.005,0.008
	c-0.125,0.58,0.221,1.06,0.794,1.115l0.008,0.012h0.05l0.002,0.003c0.381,0,1.686-0.001,2.295-0.003h0.425
	c0.029,0,0.033-0.011,0.042-0.016c0.586-0.073,1.145-0.549,1.278-1.119l2.179-9.398c0.049-0.22,0.089-0.476,0.11-0.769
	c0.029-0.298,0.062-0.542,0.053-0.718C90.196,22.916,89.623,21.933,88.494,21.3z M83.219,32.5c-0.37,0.233-0.761,0.432-1.17,0.602
	c-0.551,0.222-1.076,0.339-1.557,0.339c-0.739,0-1.31-0.105-1.696-0.328c-0.385-0.214-0.588-0.581-0.582-1.112
	c0-0.609,0.143-1.084,0.435-1.456c0.293-0.358,0.729-0.646,1.27-0.86c0.54-0.182,1.203-0.332,1.966-0.439
	c0.681-0.085,2.026-0.24,2.197-0.243c0.171,0,0.286-0.095,0.209,0.362c-0.033,0.199-0.422,1.793-0.601,2.518
	C83.639,32.1,83.35,32.416,83.219,32.5z"/>
<g>
	<g>
		<path style="&st1;" d="M152.92,15.924h-2.665c-0.003,0-0.005,0.001-0.006,0.001l-0.002-0.001c-0.609,0-1.229,0.468-1.402,1.064
			c-0.009,0.023-0.02,0.046-0.024,0.072c0,0-0.064,0.29-0.175,0.792l-3.665,16.611c-0.085,0.374-0.142,0.619-0.158,0.683l0.007,0.01
			c-0.127,0.58,0.223,1.062,0.795,1.115l0.008,0.011h2.77c0.606,0,1.223-0.464,1.401-1.052c0.009-0.028,0.021-0.055,0.028-0.084
			l3.998-18.087l-0.007-0.002C153.959,16.438,153.561,15.924,152.92,15.924z"/>
	</g>
</g>
<g>
	<path style="&st1;" d="M157.974,19.608c-0.091,0.023-0.192,0.043-0.299,0.06c-0.108,0.016-0.206,0.023-0.29,0.023
		c-0.298,0-0.522-0.08-0.677-0.239c-0.154-0.16-0.23-0.415-0.23-0.767v-1.543h-0.33v-0.411h0.33v-0.835h0.487v0.835h1.009v0.411
		h-1.009v1.322c0,0.152,0.004,0.271,0.011,0.356c0.009,0.086,0.031,0.166,0.072,0.241c0.038,0.069,0.091,0.12,0.157,0.151
		c0.067,0.033,0.169,0.049,0.306,0.049c0.079,0,0.162-0.012,0.249-0.035c0.086-0.023,0.149-0.043,0.187-0.06h0.026L157.974,19.608
		L157.974,19.608z"/>
	<path style="&st1;" d="M162.799,19.633h-0.487V17.98c0-0.125-0.009-0.246-0.019-0.36c-0.011-0.117-0.036-0.209-0.072-0.278
		c-0.039-0.075-0.097-0.132-0.171-0.169c-0.073-0.038-0.182-0.057-0.323-0.057c-0.137,0-0.272,0.034-0.409,0.102
		s-0.272,0.156-0.409,0.262c0.004,0.04,0.01,0.085,0.012,0.139c0.003,0.053,0.005,0.105,0.005,0.157v1.858h-0.488V17.98
		c0-0.129-0.008-0.25-0.016-0.365c-0.013-0.115-0.036-0.207-0.073-0.276c-0.041-0.074-0.098-0.13-0.172-0.168
		c-0.074-0.036-0.183-0.055-0.322-0.055c-0.136,0-0.267,0.033-0.403,0.099c-0.133,0.066-0.266,0.149-0.401,0.251v2.167h-0.488
		v-2.903h0.488v0.322c0.154-0.126,0.305-0.225,0.457-0.296c0.152-0.071,0.312-0.106,0.484-0.106c0.197,0,0.364,0.042,0.503,0.125
		c0.138,0.083,0.239,0.198,0.308,0.346c0.197-0.167,0.378-0.287,0.541-0.36c0.161-0.074,0.336-0.111,0.521-0.111
		c0.318,0,0.554,0.097,0.705,0.289c0.151,0.194,0.228,0.464,0.228,0.811v1.883H162.799z"/>
</g>
</svg>
